<?xml version="1.0" encoding="UTF-8"?>
<svg width="20px" height="20px" viewBox="0 0 20 20" version="1.1" xmlns="http://www.w3.org/2000/svg" xmlns:xlink="http://www.w3.org/1999/xlink">
    <!-- Generator: Sketch 52.2 (67145) - http://www.bohemiancoding.com/sketch -->
    <title>food-basket</title>
    <desc>Created with Sketch.</desc>
    <g id="Page-1" stroke="none" stroke-width="1" fill="none" fill-rule="evenodd">
        <g id="菜单列表" transform="translate(-93.000000, -628.000000)" fill="#FFFFFF">
            <g id="Group-8" transform="translate(0.000000, 607.000000)">
                <g id="Group-3" transform="translate(70.000000, 10.000000)">
                    <g id="Group-9">
                        <g id="Group-4" transform="translate(23.000000, 9.000000)">
                            <g id="Group-11" transform="translate(0.000000, 2.000000)">
                                <path d="M1.33333333,8.61538462 L18.6666667,8.61538462 L18.6666667,6.53846154 L1.33333333,6.53846154 L1.33333333,8.61538462 Z M17.3333333,16.8875561 C17.3333333,17.2720167 17.0346667,17.6070268 16.6666667,17.6070268 L3.33333333,17.6070268 C2.96533333,17.6070268 2.66666667,17.2720167 2.66666667,16.8875561 L2.66666667,9.94567404 L17.3333333,9.94567404 L17.3333333,16.8875561 Z M16.0093333,5.15802512 L19.9953333,5.15802507 L20,9.94567404 L18.6666667,9.94567404 L18.6666667,16.8875561 C18.6666667,18.039545 17.7693333,19 16.6666667,19 L3.33333333,19 C2.23066667,19 1.33333333,18.039545 1.33333333,16.8875561 L1.33333333,9.94567404 L0,9.94567404 L0,5.15384615 L4.028,5.15384615 L6.98333333,1.03273487 L8.042,1.8789661 L6,5.15802512 L14,5.15802512 L11.9793333,1.84623123 L13.0393333,1 L16.0093333,5.15802512 Z M4.66666667,16.2307692 L6,16.2307692 L6,11.3846154 L4.66666667,11.3846154 L4.66666667,16.2307692 Z M14,16.2307692 L15.3333333,16.2307692 L15.3333333,11.3846154 L14,11.3846154 L14,16.2307692 Z M9.33333333,16.2307692 L10.6666667,16.2307692 L10.6666667,11.3846154 L9.33333333,11.3846154 L9.33333333,16.2307692 Z" id="food-basket"></path>
                            </g>
                        </g>
                    </g>
                </g>
            </g>
        </g>
    </g>
</svg>