<?xml version="1.0" encoding="UTF-8"?>
<svg width="40px" height="40px" viewBox="0 0 40 40" version="1.1" xmlns="http://www.w3.org/2000/svg" xmlns:xlink="http://www.w3.org/1999/xlink">
    <!-- Generator: Sketch 52.2 (67145) - http://www.bohemiancoding.com/sketch -->
    <title>Group 19</title>
    <desc>Created with Sketch.</desc>
    <defs>
        <linearGradient x1="100%" y1="100%" x2="0%" y2="0%" id="linearGradient-1">
            <stop stop-color="#20BEFF" offset="0%"></stop>
            <stop stop-color="#006CFF" offset="100%"></stop>
        </linearGradient>
    </defs>
    <g id="Page-1" stroke="none" stroke-width="1" fill="none" fill-rule="evenodd">
        <g id="分享菜单" transform="translate(-262.000000, -595.000000)" fill-rule="nonzero">
            <g id="Group-15" transform="translate(0.000000, 551.000000)">
                <g id="Group-14-Copy" transform="translate(188.000000, 36.000000)">
                    <g id="Group-19" transform="translate(74.000000, 8.000000)">
                        <circle id="Oval" fill="url(#linearGradient-1)" cx="20" cy="20" r="20"></circle>
                        <g id="微信" transform="translate(8.000000, 10.000000)" fill="#FFFFFF">
                            <path d="M16.9390952,6.15731141 C17.0629037,6.15731141 17.1840272,6.15969809 17.3057474,6.16566477 C16.6640314,2.67366756 13.0571757,0 8.70329211,0 C3.89564283,0 0,3.25870016 0,7.27904652 C0,9.63618193 1.33862379,11.7319769 3.41592207,13.0616507 L3.49617387,13.1120691 L2.65487254,15.7463566 L5.80139918,14.1437074 L5.94937275,14.1863691 C7.03536354,14.4863655 8.16330239,14.6057006 9.28802637,14.5395963 C9.10581807,13.9787077 9.01260231,13.3927369 9.01176928,12.8029953 C9.01176928,9.13289279 12.5619416,6.15731143 16.9390952,6.15731141 M11.7316786,3.58865734 C12.4071063,3.58865734 12.9533555,4.11819984 12.9533555,4.77214756 C12.9533555,5.42520025 12.4071063,5.95563777 11.7316786,5.95563775 C11.0562508,5.95563773 10.5097033,5.42520025 10.5097033,4.77214756 C10.5100016,4.11819986 11.0562508,3.58865734 11.7316786,3.58865734 M5.67460732,5.95563775 C4.99977625,5.95563775 4.45293039,5.42520025 4.45293039,4.77214756 C4.45293039,4.11819986 4.99977625,3.58865734 5.67460732,3.58865734 C6.3503334,3.58865734 6.89777592,4.11819984 6.89777592,4.77214756 C6.89747758,5.42520025 6.35003506,5.95563777 5.67460732,5.95563775 Z M9.65199361,12.8459553 C9.65199363,9.45002162 12.9447038,6.69729561 17.0059219,6.69729561 C21.0656484,6.69729561 24.3571652,9.45002162 24.3571652,12.8459553 C24.3571652,14.8379302 23.2249884,16.6079446 21.4713823,17.7314697 L21.4039589,17.7741315 L22.113695,20 L19.4570325,18.6449679 C18.6611417,18.8788155 17.8357535,18.9969721 17.0062203,18.9958084 C12.9447038,18.9958084 9.65199361,16.2424857 9.65199361,12.8459553 Z M18.530706,10.7280837 C18.530706,11.2805979 18.9925267,11.7286952 19.5626426,11.7286952 C20.1339519,11.7286952 20.5957726,11.2805979 20.5957726,10.7280837 C20.5957726,10.1764645 20.1339519,9.72956041 19.5626426,9.72956041 C18.9925267,9.72956041 18.530706,10.1764645 18.530706,10.7280837 Z M13.4139829,10.7280837 C13.4139829,11.2805979 13.876102,11.7286952 14.4465162,11.7286952 C15.0169304,11.7286952 15.4796462,11.2805979 15.4796462,10.7280837 C15.4796462,10.1764645 15.0169304,9.72956041 14.4465162,9.72956041 C13.876102,9.72956041 13.4139829,10.1764645 13.4139829,10.7280837 Z" id="Shape"></path>
                        </g>
                    </g>
                </g>
            </g>
        </g>
    </g>
</svg>