<?xml version="1.0" encoding="UTF-8"?>
<svg width="10px" height="12px" viewBox="0 0 10 12" version="1.1" xmlns="http://www.w3.org/2000/svg" xmlns:xlink="http://www.w3.org/1999/xlink">
    <!-- Generator: Sketch 52.1 (67048) - http://www.bohemiancoding.com/sketch -->
    <title>add</title>
    <desc>Created with Sketch.</desc>
    <defs>
        <linearGradient x1="0%" y1="0%" x2="100%" y2="100%" id="linearGradient-1">
            <stop stop-color="#F5515F" offset="0%"></stop>
            <stop stop-color="#FFAEBA" offset="100%"></stop>
        </linearGradient>
    </defs>
    <g id="Page-1" stroke="none" stroke-width="1" fill="none" fill-rule="evenodd">
        <g id="餐厅详情" transform="translate(-20.000000, -198.000000)" fill="url(#linearGradient-1)" fill-rule="nonzero">
            <path d="M29.9999534,202.968347 C29.9999534,200.224336 27.7614184,198 24.9999456,198 C22.2385505,198 20,200.224336 20,202.968347 C20,203.055436 20.0086288,203.139617 20.0131531,203.224874 C20.0090486,203.266987 20,203.307601 20,203.35082 C20,206.408786 24.6153954,209.87263 24.6153954,209.87263 C24.6153954,209.87263 24.9999922,210.159212 25.3846046,209.87263 C25.7692015,209.58573 30,206.408786 30,203.35082 C30,203.307601 29.9909514,203.266987 29.9868469,203.224874 C29.9913245,203.139617 29.9999534,203.055436 29.9999534,202.968347 Z M24.9999456,204.879758 C23.9377605,204.879758 23.0769303,204.024177 23.0769303,202.968347 C23.0769303,201.913259 23.937745,201.057648 24.9999456,201.057648 C26.0621928,201.057648 26.9230697,201.913259 26.9230697,202.968347 C26.9230697,204.024177 26.0621928,204.879758 24.9999456,204.879758 Z" id="add"></path>
        </g>
    </g>
</svg>