<?xml version="1.0" encoding="UTF-8"?>
<svg width="24px" height="24px" viewBox="0 0 24 24" version="1.1" xmlns="http://www.w3.org/2000/svg" xmlns:xlink="http://www.w3.org/1999/xlink">
    <!-- Generator: Sketch 52.2 (67145) - http://www.bohemiancoding.com/sketch -->
    <title>add_btn</title>
    <desc>Created with Sketch.</desc>
    <g id="Page-1" stroke="none" stroke-width="1" fill="none" fill-rule="evenodd">
        <g id="首页" transform="translate(-303.000000, -364.000000)" fill="#FFFFFF">
            <path d="M326.076923,375.076923 L315.923077,375.076923 L315.923077,364.923077 C315.923077,364.406154 315.516923,364 315,364 C314.483077,364 314.076923,364.406154 314.076923,364.923077 L314.076923,375.076923 L303.923077,375.076923 C303.406154,375.076923 303,375.483077 303,376 C303,376.516923 303.406154,376.923077 303.923077,376.923077 L314.076923,376.923077 L314.076923,387.076923 C314.076923,387.593846 314.483077,388 315,388 C315.516923,388 315.923077,387.593846 315.923077,387.076923 L315.923077,376.923077 L326.076923,376.923077 C326.593846,376.923077 327,376.516923 327,376 C327,375.483077 326.593846,375.076923 326.076923,375.076923 Z" id="add_btn"></path>
        </g>
    </g>
</svg>