<?xml version="1.0" encoding="UTF-8"?>
<svg width="16px" height="16px" viewBox="0 0 16 16" version="1.1" xmlns="http://www.w3.org/2000/svg" xmlns:xlink="http://www.w3.org/1999/xlink">
    <!-- Generator: Sketch 52.2 (67145) - http://www.bohemiancoding.com/sketch -->
    <title>delete</title>
    <desc>Created with Sketch.</desc>
    <g id="Page-1" stroke="none" stroke-width="1" fill="none" fill-rule="evenodd">
        <g id="搜索列表" transform="translate(-287.000000, -80.000000)" fill="#D3DCE6" fill-rule="nonzero">
            <g id="Group-6" transform="translate(0.000000, 64.000000)">
                <path d="M296.211429,24 L298.230857,21.9817143 C298.460175,21.7680336 298.554571,21.4462222 298.477012,21.1425269 C298.399454,20.8388315 298.162311,20.601689 297.858616,20.5241306 C297.554921,20.4465722 297.233109,20.5409677 297.019429,20.7702857 L294.998857,22.7862857 L292.981714,20.7691429 C292.768034,20.5398248 292.446222,20.4454293 292.142527,20.5229878 C291.838832,20.6005462 291.601689,20.8376887 291.524131,21.141384 C291.446572,21.4450793 291.540968,21.7668908 291.770286,21.9805714 L293.787429,24 L291.769143,26.0182857 C291.539825,26.2319664 291.445429,26.5537778 291.522988,26.8574731 C291.600546,27.1611685 291.837689,27.398311 292.141384,27.4758694 C292.445079,27.5534278 292.766891,27.4590323 292.980571,27.2297143 L295,25.2125714 L297.018286,27.2308571 C297.231966,27.4601752 297.553778,27.5545707 297.857473,27.4770122 C298.161168,27.3994538 298.398311,27.1623113 298.475869,26.858616 C298.553428,26.5549207 298.459032,26.2331092 298.229714,26.0194286 L296.213714,23.9988571 L296.211429,24 Z M295,32 C290.581722,32 287,28.418278 287,24 C287,19.581722 290.581722,16 295,16 C299.418278,16 303,19.581722 303,24 C303,28.418278 299.418278,32 295,32 Z" id="delete"></path>
            </g>
        </g>
    </g>
</svg>