<?xml version="1.0" encoding="UTF-8"?>
<svg width="20px" height="20px" viewBox="0 0 20 20" version="1.1" xmlns="http://www.w3.org/2000/svg" xmlns:xlink="http://www.w3.org/1999/xlink">
    <!-- Generator: Sketch 52.2 (67145) - http://www.bohemiancoding.com/sketch -->
    <title>details_icon_select</title>
    <desc>Created with Sketch.</desc>
    <g id="Page-1" stroke="none" stroke-width="1" fill="none" fill-rule="evenodd">
        <g id="菜谱详情（增加选择以及分享功能）" transform="translate(-145.000000, -633.000000)" fill="#223040" fill-rule="nonzero">
            <g id="Group-4-Copy" transform="translate(145.000000, 633.000000)">
                <g id="Group-12">
                    <path d="M10,0 C15.5,0 20,4.49579833 20,10 C20,15.5042017 15.5416667,20 10,20 C4.45833334,20 0,15.5042017 0,10 C0,4.49579833 4.5,0 10,0 Z M10,19 C14.9583333,19 19,14.9813954 19,10 C19,5.01860465 14.9583333,1 10,1 C5.04166666,1 1,5.01860467 1,10 C1,14.9813954 5.04166668,19 10,19 Z M15.1073446,6.1683814 C15.3333333,5.93667671 15.6497175,5.93667671 15.8305085,6.21472234 C16.0564972,6.44642704 16.0564972,6.77081361 15.8305085,7.00251831 L8.87005649,13.8609772 C8.68926554,14.0463409 8.37288136,14.0463409 8.14689265,13.8609772 L4.21468926,10.1073612 L4.16949152,10.0610202 C3.94350281,9.82931554 3.94350284,9.50492897 4.16949152,9.27322427 C4.39548021,9.04151957 4.71186439,9.04151957 4.9378531,9.27322427 L8.50847457,12.6561128 L15.1073446,6.1683814 Z" id="Shape"></path>
                </g>
            </g>
        </g>
    </g>
</svg>