<?xml version="1.0" encoding="UTF-8"?>
<svg width="20px" height="20px" viewBox="0 0 20 20" version="1.1" xmlns="http://www.w3.org/2000/svg" xmlns:xlink="http://www.w3.org/1999/xlink">
    <!-- Generator: Sketch 52.2 (67145) - http://www.bohemiancoding.com/sketch -->
    <title>details_icon_home</title>
    <desc>Created with Sketch.</desc>
    <g id="Page-1" stroke="none" stroke-width="1" fill="none" fill-rule="evenodd">
        <g id="菜谱详情（增加选择以及分享功能）" transform="translate(-17.000000, -633.000000)" fill="#1F2D3D">
            <g id="Group-4" transform="translate(17.000000, 633.000000)">
                <g id="Group-12">
                    <path d="M15.8079504,17.8387097 L4.19204956,17.8387097 L4.19204956,5.79670968 L5.33679659,5.11735484 L5.3588668,5.11735484 L5.3588668,5.104 L10,2.35058065 L15.8079504,5.79670968 L15.8079504,17.8387097 Z M19,6.33903226 L18.4070083,7.33832258 L16.9695405,6.48535484 L16.9695405,19 L3.03045947,19 L3.03045947,6.48535484 L1.59299174,7.33832258 L1,6.33903226 L4.19727672,4.44264516 L4.19727672,1 L5.3588668,1 L5.3588668,3.75341935 L10,1 L19,6.33903226 Z M7.09602478,9.73238065 L7.09602478,14.3548968 L12.9039752,14.3548968 L12.9039752,9.73238065 C12.9039752,8.11934839 11.6024135,6.80650968 9.99767682,6.80650968 C8.39758647,6.80650968 7.09602478,8.11934839 7.09602478,9.73238065 Z M11.7423851,9.73238065 L11.7423851,13.1936065 L8.25761487,13.1936065 L8.25761487,9.73238065 C8.25761487,8.75921935 9.03820341,7.9678 10.0023232,7.9678 C10.9617966,7.9678 11.7423851,8.75921935 11.7423851,9.73238065 Z" id="Icon-61"></path>
                </g>
            </g>
        </g>
    </g>
</svg>