<?xml version="1.0" encoding="UTF-8"?>
<svg width="357px" height="80px" viewBox="0 0 357 80" version="1.1" xmlns="http://www.w3.org/2000/svg" xmlns:xlink="http://www.w3.org/1999/xlink">
    <!-- Generator: Sketch 52.1 (67048) - http://www.bohemiancoding.com/sketch -->
    <title>Group 7</title>
    <desc>Created with Sketch.</desc>
    <defs>
        <rect id="path-1" x="0" y="0" width="375" height="80"></rect>
    </defs>
    <g id="Page-1" stroke="none" stroke-width="1" fill="none" fill-rule="evenodd">
        <g id="吃过啥" transform="translate(-2.000000, -64.000000)">
            <g id="Group-6" transform="translate(0.000000, 64.000000)">
                <g id="Group-7">
                    <mask id="mask-2" fill="white">
                        <use xlink:href="#path-1"></use>
                    </mask>
                    <use id="Rectangle" fill-opacity="0" fill="#FF6B6B" fill-rule="nonzero" xlink:href="#path-1"></use>
                    <g id="Group" opacity="0.204310826" mask="url(#mask-2)" fill="#FFFFFF">
                        <g transform="translate(184.304148, 13.028498) rotate(10.000000) translate(-184.304148, -13.028498) translate(11.804148, -78.471502)">
                            <path d="M196.796277,65.1537976 C197.898777,63.7332976 198.429027,62.0615476 198.851277,60.4670476 C199.874277,56.5767976 203.445777,53.7845476 207.543027,53.7867976 C208.187277,53.7867976 208.845777,53.8557976 209.511777,54.0005476 C212.967027,54.7467976 215.743527,57.6057976 216.384777,61.0812976 C216.492027,61.6587976 216.543027,62.2287976 216.543027,62.7867976 C216.544527,67.1345476 213.423777,70.8320476 209.231277,71.6225476 C207.749277,71.9045476 206.505777,72.6830476 205.413777,73.5177976 C204.376527,74.3127976 203.077527,74.7867976 201.660027,74.7867976 C199.968777,74.7867976 198.441777,74.1117976 197.332527,73.0227976 C196.224027,71.9322976 195.543777,70.4382976 195.543027,68.7867976 C195.543777,67.4210476 196.008777,66.1662976 196.796277,65.1537976 L196.796277,65.1537976 Z M201.660027,76.2867976 C203.415027,76.2867976 205.038027,75.6965476 206.326527,74.7087976 C207.336777,73.9325476 208.389027,73.3055476 209.509527,73.0962976 C214.410027,72.1700476 218.041527,67.8635476 218.043027,62.7867976 C218.043027,62.1365476 217.983027,61.4750476 217.859277,60.8075476 C217.095777,56.7230476 213.889527,53.4215476 209.830527,52.5342976 C209.060277,52.3670476 208.294527,52.2867976 207.543027,52.2867976 C202.758027,52.2890476 198.601527,55.5335476 197.400777,60.0852976 C196.996527,61.6280476 196.503027,63.0927976 195.612777,64.2320476 C194.630277,65.4927976 194.042277,67.0760476 194.043027,68.7867976 C194.046027,72.9350476 197.467527,76.2867976 201.660027,76.2867976 L201.660027,76.2867976 Z" id="Fill-46-Copy"></path>
                            <path d="M259.083283,65.7273098 C260.185783,64.3068098 260.716033,62.6350598 261.138283,61.0405598 C262.161283,57.1503098 265.732783,54.3580598 269.830033,54.3603098 C270.474283,54.3603098 271.132783,54.4293098 271.798783,54.5740598 C275.254033,55.3203098 278.030533,58.1793098 278.671783,61.6548098 C278.779032,62.2323098 278.830032,62.8023098 278.830032,63.3603098 C278.831532,67.7080598 275.710783,71.4055598 271.518283,72.1960598 C270.036283,72.4780598 268.792783,73.2565598 267.700783,74.0913098 C266.663533,74.8863098 265.364533,75.3603098 263.947033,75.3603098 C262.255783,75.3603098 260.728783,74.6853098 259.619533,73.5963098 C258.511033,72.5058098 257.830783,71.0118098 257.830033,69.3603098 C257.830783,67.9945598 258.295783,66.7398098 259.083283,65.7273098 L259.083283,65.7273098 Z M263.947033,76.8603098 C265.702033,76.8603098 267.325033,76.2700598 268.613533,75.2823098 C269.623783,74.5060598 270.676033,73.8790598 271.796533,73.6698098 C276.697033,72.7435598 280.328532,68.4370598 280.330032,63.3603098 C280.330032,62.7100598 280.270032,62.0485598 280.146282,61.3810598 C279.382782,57.2965598 276.176533,53.9950598 272.117533,53.1078098 C271.347283,52.9405598 270.581533,52.8603098 269.830033,52.8603098 C265.045033,52.8625598 260.888533,56.1070598 259.687783,60.6588098 C259.283533,62.2015598 258.790033,63.6663098 257.899783,64.8055598 C256.917283,66.0663098 256.329283,67.6495598 256.330033,69.3603098 C256.333033,73.5085598 259.754533,76.8603098 263.947033,76.8603098 L263.947033,76.8603098 Z" id="Fill-49-Copy"></path>
                            <path d="M261.450817,67.5708065 C262.887426,65.724307 263.546841,63.6730576 264.040464,61.8055581 C264.729136,59.1903089 267.110981,57.2875594 269.83266,57.2875594 C270.27227,57.2875594 270.720882,57.3603094 271.163493,57.3603094 L271.164993,57.3603094 C273.452314,58.1103092 275.303026,59.8323087 275.726132,62.131058 C275.795899,62.5075579 275.829658,62.9185578 275.829658,63.2875577 C275.829658,66.1345569 273.819906,68.6935562 270.965443,69.2298061 C268.706629,69.6580559 266.967695,70.8678056 265.876172,71.7018054 C265.319533,72.1278052 264.663119,72.3543052 263.948191,72.3558052 C263.080974,72.3558052 262.30153,72.0168053 261.736639,71.4700554 C261.172498,70.9210556 260.831162,70.1808058 260.830412,69.358806 C260.831913,68.7055562 261.040465,68.0988064 261.450817,67.5708065 L261.450817,67.5708065 Z M263.948191,73.8603048 C264.981949,73.8618048 265.975197,73.5273049 266.7899,72.901055 C267.810905,72.1158052 269.358542,71.0748055 271.243763,70.7223056 C274.831158,70.0413058 277.330032,66.8748067 277.330032,63.3235577 C277.330032,62.8638078 277.288022,62.397308 277.201,61.9300581 C276.654864,59.0215589 274.375795,56.6733096 271.483823,56.0403097 C270.936936,55.9203098 270.381797,55.8603098 269.83266,55.8603098 C266.432061,55.8603098 263.454568,58.1448091 262.589602,61.4230582 C262.112482,63.2350577 261.505581,65.0598072 260.267022,66.6490568 C259.657119,67.4283066 259.328537,68.3778063 259.330038,69.360306 C259.334539,71.8615553 261.417809,73.8558048 263.948191,73.8603048 L263.948191,73.8603048 Z" id="Fill-50-Copy"></path>
                            <path d="M270.060955,60.1974142 C270.885955,60.1989142 271.559455,60.8724142 271.560955,61.6974142 C271.559455,62.5224142 270.885955,63.1959142 270.060955,63.1974142 C269.235955,63.1959142 268.562455,62.5224142 268.560955,61.6974142 C268.562455,60.8724142 269.235955,60.1989142 270.060955,60.1974142 L270.060955,60.1974142 Z M270.060955,64.6974142 C271.716955,64.6959142 273.059455,63.3534142 273.060955,61.6974142 C273.059455,60.0414142 271.716955,58.6989142 270.060955,58.6974142 C268.404955,58.6989142 267.062455,60.0414142 267.060955,61.6974142 C267.062455,63.3534142 268.404955,64.6959142 270.060955,64.6974142 L270.060955,64.6974142 Z" id="Fill-52-Copy"></path>
                            <path d="M322.180678,65.6975104 C322.287178,65.4530104 322.556428,65.2557604 322.859428,65.2595104 C323.266678,65.2602604 323.609428,65.6022604 323.609428,66.0095104 L323.609428,67.5095104 C323.609428,68.7522604 324.616678,69.7565104 325.859428,69.7595104 C327.102178,69.7565104 328.109428,68.7522604 328.109428,67.5095104 L328.109428,66.4850104 C328.109428,67.4435104 329.037928,68.2760104 329.815678,68.8587604 C330.561178,69.4205104 331.472428,69.7587604 332.481928,69.7595104 C332.796178,69.7595104 332.609428,69.7227604 333.359428,69.6717604 L333.359428,69.5787604 C334.859428,69.2847604 335.937928,68.3360104 336.516928,66.9365104 L336.633928,66.9342604 C336.633178,66.9350104 336.708928,66.9357604 336.708928,66.9365104 C336.897178,66.4805104 336.927928,65.9915104 336.952678,65.4905104 C337.084678,65.6262604 337.109428,65.8092604 337.109428,66.0095104 L337.109428,69.0095104 C337.109428,70.2522604 338.116678,71.2565104 339.359428,71.2595104 C340.602178,71.2565104 341.609428,70.2522604 341.609428,69.0095104 L341.609428,66.0095104 C341.609428,65.6022604 342.049678,65.2602604 342.456928,65.2595104 C342.672928,65.2580104 342.917428,65.3562604 343.052428,65.5017604 C343.011928,67.2890104 342.557428,68.9622604 341.715928,70.4195104 L341.720428,70.4465104 C339.911428,73.6212604 336.505678,75.7602604 332.603428,75.7595104 C327.326428,75.7617604 322.960678,71.8512604 322.233928,66.7880104 L322.232428,66.7715104 C322.177678,66.4392604 322.148428,66.1062604 322.129678,65.7702604 L322.180678,65.6975104 L322.180678,65.6975104 Z M335.609428,65.2595104 C335.608678,65.6637604 335.537428,66.0260104 335.396428,66.3680104 L335.393428,66.3747604 C335.022928,67.2965104 334.206178,67.9932604 333.215428,68.1980104 C333.012928,68.2355104 332.803678,68.2595104 332.609428,68.2595104 C331.939678,68.2602604 331.296928,68.0292604 330.811678,67.6610104 L330.809428,67.6595104 C330.235678,67.2282604 329.833678,66.6147604 329.672428,65.8835104 L329.671678,65.8715104 C329.632678,65.6667604 329.609428,65.4560104 329.609428,65.2595104 C329.612428,63.6042604 330.954178,62.2625104 332.609428,62.2595104 C334.264678,62.2625104 335.606428,63.6042604 335.609428,65.2595104 L335.609428,65.2595104 Z M325.185928,57.8360104 C327.088678,55.9340104 329.709178,54.7595104 332.609428,54.7595104 C335.509678,54.7595104 338.129428,55.9340104 340.032928,57.8360104 C341.610928,59.4155104 342.676678,61.4922604 342.997678,63.8090104 C342.853678,63.7805104 342.609928,63.7595104 342.456928,63.7595104 C341.214178,63.7625104 340.109428,64.7667604 340.109428,66.0095104 L340.109428,69.0095104 C340.109428,69.4167604 339.766678,69.7587604 339.359428,69.7595104 C338.952178,69.7587604 338.609428,69.4167604 338.609428,69.0095104 L338.609428,66.0095104 C338.609428,64.8710104 337.857928,63.9425104 336.761428,63.7910104 C336.151678,62.0277604 334.530178,60.7602604 332.560678,60.7595104 C330.578428,60.7602604 328.923178,62.0442604 328.323178,63.8240104 C327.328678,64.0580104 326.609428,64.9437604 326.609428,66.0095104 L326.609428,67.5095104 C326.609428,67.9167604 326.266678,68.2587604 325.859428,68.2595104 C325.452178,68.2587604 325.109428,67.9167604 325.109428,67.5095104 L325.109428,66.0095104 C325.109428,64.7667604 324.102178,63.7625104 322.859428,63.7595104 C322.634428,63.7602604 322.417678,63.7947604 322.214428,63.8562604 C322.527178,61.5200104 323.597428,59.4260104 325.185928,57.8360104 L325.185928,57.8360104 Z M320.751928,67.0010104 C320.752678,67.0032604 320.752678,67.0055104 320.753428,67.0085104 C320.754178,67.0115104 320.754178,67.0145104 320.754928,67.0175104 C321.595678,72.8060104 326.581678,77.2572604 332.609428,77.2595104 C337.073428,77.2587604 340.979428,74.8107604 343.041178,71.1800104 L343.049428,71.1500104 C344.052928,69.4070104 344.609428,67.3925104 344.609428,65.2595104 C344.608678,58.6347604 339.234178,53.2602604 332.609428,53.2595104 C325.984678,53.2602604 320.610178,58.6347604 320.609428,65.2595104 C320.609428,65.8490104 320.657428,66.4265104 320.752678,67.0010104 L320.751928,67.0010104 L320.751928,67.0010104 Z" id="Fill-53-Copy"></path>
                            <path d="M328.838116,68.5477175 C328.837116,68.5467175 328.836116,68.5467175 328.836116,68.5467175 L328.839116,68.5487175 C328.838116,68.5487175 328.838116,68.5477175 328.838116,68.5477175" id="Fill-54-Copy"></path>
                            <path d="M325.435083,61.6270419 L326.934895,60.1272294 C327.228109,59.8347659 327.228109,59.3593254 326.934895,59.0668619 C326.641682,58.7736486 326.166991,58.7736486 325.874528,59.0668619 L324.374715,60.5666745 C324.081502,60.8591379 324.081502,61.3345785 324.374715,61.6270419 C324.667179,61.9202553 325.14187,61.9202553 325.435083,61.6270419" id="Fill-55-Copy"></path>
                            <path d="M332.586424,58.0283676 C332.878887,58.321581 333.353578,58.321581 333.646791,58.0283676 C333.940004,57.7359042 333.940004,57.2604636 333.646791,56.9680002 L332.146979,55.4681876 C331.853765,55.1749743 331.379075,55.1749743 331.086611,55.4681876 C330.793398,55.7606511 330.793398,56.2360917 331.086611,56.5285551 L332.586424,58.0283676" id="Fill-56-Copy"></path>
                            <path d="M336.90272,60.7991804 L338.40272,60.7991804 C338.81672,60.7991804 339.15272,60.3511804 339.15272,59.7991804 C339.15272,59.2471804 338.81672,58.7991804 338.40272,58.7991804 L336.90272,58.7991804 C336.48872,58.7991804 336.15272,59.2471804 336.15272,59.7991804 C336.15272,60.3511804 336.48872,60.7991804 336.90272,60.7991804" id="Fill-57-Copy"></path>
                            <path d="M2.43281409,123.311599 C2.43356535,122.154647 2.87155443,121.004456 3.75053767,120.124722 L15.7355116,108.139748 C16.6152461,107.260013 17.765437,106.822776 18.9231405,106.822024 C20.0808441,106.822776 21.2302837,107.260013 22.1100182,108.139748 C22.9897527,109.019482 23.4269905,110.168922 23.4277418,111.326625 C23.4269905,112.484329 22.9897527,113.63452 22.1100182,114.514254 L10.1250443,126.499228 C9.24530977,127.378963 8.09511889,127.816201 6.93741533,127.816952 C5.78046304,127.816201 4.63027217,127.378212 3.75053767,126.499228 C2.87155443,125.619494 2.43356535,124.469303 2.43281409,123.311599 L2.43281409,123.311599 Z M6.93741533,129.319487 C8.47375782,129.320239 10.0168617,128.732747 11.1873368,127.561521 L23.173062,115.576547 C24.3435371,114.406072 24.9310285,112.862968 24.9302772,111.326625 C24.9310285,109.791034 24.3435371,108.247179 23.173062,107.076704 C22.0025869,105.906229 20.4587317,105.318738 18.9231405,105.319489 C17.386798,105.318738 15.8436941,105.906229 14.673219,107.076704 L2.68824511,119.062429 C1.51701874,120.232153 0.92952738,121.776008 0.930278648,123.311599 C0.92952738,124.847942 1.51701874,126.391046 2.68824511,127.561521 L3.21939139,127.030375 L2.68824511,127.561521 C3.85872022,128.732747 5.40182411,129.320239 6.93741533,129.319487 L6.93741533,129.319487 Z" id="Fill-61-Copy"></path>
                            <path d="M5.90886902,121.700273 L11.508869,121.700273 C11.895269,121.700273 12.208869,121.252273 12.208869,120.700273 C12.208869,120.148273 11.895269,119.700273 11.508869,119.700273 L5.90886902,119.700273 C5.52246902,119.700273 5.20886902,120.148273 5.20886902,120.700273 C5.20886902,121.252273 5.52246902,121.700273 5.90886902,121.700273" id="Fill-62-Copy"></path>
                            <path d="M10.6283753,118.27591 L16.2283753,118.27591 C16.6147753,118.27591 16.9283753,117.82791 16.9283753,117.27591 C16.9283753,116.72391 16.6147753,116.27591 16.2283753,116.27591 L10.6283753,116.27591 C10.2419753,116.27591 9.92837528,116.72391 9.92837528,117.27591 C9.92837528,117.82791 10.2419753,118.27591 10.6283753,118.27591" id="Fill-63-Copy"></path>
                            <path d="M15.1735701,112.859158 L20.7735701,112.859158 C21.1599701,112.859158 21.4735701,112.411158 21.4735701,111.859158 C21.4735701,111.307158 21.1599701,110.859158 20.7735701,110.859158 L15.1735701,110.859158 C14.7871701,110.859158 14.4735701,111.307158 14.4735701,111.859158 C14.4735701,112.411158 14.7871701,112.859158 15.1735701,112.859158" id="Fill-64-Copy"></path>
                            <path d="M68.3613687,116.869533 L77.4438678,107.787034 C77.8811178,107.349784 78.4548677,107.132284 79.0368677,107.131534 C79.6166176,107.132284 80.1888676,107.349784 80.6261175,107.787034 L81.1563675,107.256784 L80.6261175,107.787034 L81.1563675,108.317284 L68.8916187,120.582033 L68.3613687,120.051783 C67.9241187,119.614533 67.7066188,119.041533 67.7058688,118.460283 C67.7066188,117.879783 67.9241187,117.306783 68.3613687,116.869533 L68.3613687,116.869533 Z M82.7471173,108.847534 L83.2773673,108.317284 C83.8631172,107.731534 84.6273671,107.441284 85.3991171,107.440534 C86.170117,107.441284 86.9343669,107.731534 87.5201169,108.317284 C88.1058668,108.903034 88.3961168,109.667284 88.3968668,110.438284 C88.3961168,111.210034 88.1058668,111.973534 87.5201169,112.560033 L73.1343682,126.945782 C72.5486183,127.531532 71.7843684,127.821782 71.0126184,127.822532 C70.2416185,127.821782 69.4773686,127.531532 68.8916187,126.945782 C68.3058687,126.360032 68.0156187,125.595782 68.0148687,124.824782 C68.0156187,124.053032 68.3058687,123.288782 68.8916187,122.703033 L82.7471173,108.847534 L82.7471173,108.847534 Z M88.7058667,116.799783 C88.7051167,117.381783 88.4876168,117.955533 88.0503668,118.393533 L78.9678677,127.476032 C78.5306177,127.913282 77.9576178,128.130782 77.3771178,128.131532 C76.7958679,128.130782 76.2228679,127.913282 75.785618,127.476032 L75.255368,126.945782 L87.5201169,114.681033 L88.0503668,115.211283 C88.4868668,115.648533 88.7051167,116.220783 88.7058667,116.799783 L88.7058667,116.799783 Z M67.8311188,121.642533 C66.9543688,122.518533 66.5141189,123.675032 66.5148689,124.824782 C66.5141189,125.973782 66.9543688,127.130282 67.8311188,128.006282 L68.3613687,127.476032 L67.8311188,128.006282 C68.7071187,128.883032 69.8636186,129.323282 71.0126184,129.322532 C72.1623683,129.323282 73.3188682,128.883032 74.1948681,128.006282 L74.7251181,128.536532 C75.454868,129.266282 76.4193679,129.632282 77.3771178,129.631532 C78.3341177,129.632282 79.2993677,129.266282 80.0283676,128.536532 L89.1108667,119.454033 L88.5806168,118.923783 L89.1108667,119.454033 C89.8421166,118.723533 90.2066166,117.756783 90.2058666,116.799783 C90.2066166,115.842783 89.8398666,114.879033 89.1108667,114.150783 L88.5806168,113.620533 C89.4573667,112.744533 89.8976166,111.588034 89.8968666,110.438284 C89.8976166,109.289284 89.4573667,108.132784 88.5806168,107.256784 C87.7046168,106.380034 86.548117,105.939784 85.3991171,105.940534 C84.2493672,105.939784 83.0928673,106.380034 82.2168674,107.256784 L81.6866174,106.726534 C80.9576175,105.997534 79.9938676,105.630784 79.0368677,105.631534 C78.0798678,105.630784 77.1138679,105.995284 76.3833679,106.726534 L67.3008688,115.809033 C66.5711189,116.538033 66.2051189,117.503283 66.2058689,118.460283 C66.2051189,119.417283 66.5711189,120.382533 67.3008688,121.112283 L67.8311188,121.642533 L67.8311188,121.642533 Z" id="Fill-65-Copy"></path>
                            <path d="M71.0718819,125.587955 C71.5000231,125.587955 71.8475001,125.260918 71.8475001,124.857962 C71.8475001,124.776932 71.8242316,124.702473 71.7986362,124.630204 L71.8079436,124.627284 L71.7552015,124.333096 C71.7552015,124.095118 71.8606856,123.87174 72.0390778,123.703112 C72.2182456,123.535213 72.4555848,123.435934 72.7084363,123.435934 L73.0202348,123.485574 L73.0210105,123.485574 C73.2870475,123.568793 73.5585139,123.609672 73.8229997,123.609672 C75.2036001,123.601643 76.3189391,122.551912 76.3266953,121.252523 C76.3274709,121.003595 76.2840363,120.748097 76.1956158,120.49771 L76.1428738,120.203522 C76.1428738,119.965544 76.2483578,119.742166 76.42675,119.573538 C76.6059178,119.405639 76.843257,119.30636 77.0961086,119.30636 L77.4079071,119.356 C77.6747197,119.439219 77.9461861,119.480099 78.2106719,119.480099 C79.5912723,119.472069 80.7066113,118.422338 80.7143675,117.122949 C80.7143675,116.874021 80.6717085,116.618524 80.5825124,116.368136 L80.583288,116.368136 L80.530546,116.073948 C80.530546,115.8367 80.6360301,115.612592 80.8144223,115.444694 C80.9935901,115.276065 81.2309292,115.176786 81.4837808,115.177516 L81.7955793,115.226426 C82.062392,115.310375 82.3338583,115.350525 82.5975685,115.350525 C83.9789446,115.342495 85.093508,114.292764 85.1020398,112.993375 C85.1020398,112.744448 85.0593807,112.48895 84.9701847,112.238562 L84.9182182,111.945105 C84.9182182,111.707127 85.0237023,111.483749 85.2020945,111.31512 C85.3812623,111.147221 85.6186015,111.047942 85.871453,111.047942 L86.1832515,111.096852 L86.4283469,111.134812 C86.8564882,111.134812 87.2039651,110.807774 87.2039651,110.404818 C87.2039651,110.082161 86.9782602,109.817173 86.6711154,109.720814 L86.6734423,109.712054 C86.4074052,109.628105 86.1359388,109.587955 85.871453,109.587955 C84.4908526,109.595255 83.3755136,110.644986 83.3669818,111.945105 C83.3669818,112.194032 83.4096408,112.44953 83.4988369,112.699918 L83.5508033,112.993375 C83.5508033,113.231353 83.4453192,113.454731 83.2669271,113.62336 C83.0877593,113.791258 82.8504201,113.890537 82.5975685,113.890537 L82.28577,113.841628 L82.2849944,113.840898 C82.019733,113.757679 81.7482666,113.716799 81.4837808,113.717529 C80.1031804,113.724829 78.9878414,114.77456 78.9793096,116.073948 C78.9793096,116.322876 79.0219686,116.578374 79.1111647,116.829492 L79.1631311,117.122949 C79.1639067,117.360927 79.057647,117.584305 78.8800304,117.752934 C78.700087,117.920832 78.4627478,118.020111 78.2106719,118.020111 L77.8980978,117.971202 L77.8980978,117.970472 C77.6320607,117.887253 77.3605944,117.846373 77.0961086,117.846373 C75.7155081,117.854403 74.6001691,118.904134 74.5916373,120.203522 C74.5916373,120.45245 74.635072,120.707948 74.7234924,120.959066 L74.7762345,121.252523 C74.7762345,121.490501 74.6707504,121.713879 74.4923582,121.882508 C74.3131904,122.050406 74.0758512,122.149685 73.8229997,122.149685 L73.5104256,122.100046 C73.2443885,122.016826 72.9729221,121.975947 72.7084363,121.975947 C71.3278359,121.983977 70.2124969,123.033707 70.2039651,124.333096 C70.2039651,124.582024 70.2473997,124.837522 70.3358202,125.08864 C70.4420799,125.387207 70.7368148,125.587955 71.0718819,125.587955" id="Fill-66-Copy"></path>
                            <path d="M151.855882,116.320305 L151.046242,119.903805 L136.739294,119.903805 L135.930413,116.320305 L135.911425,116.155305 C135.909906,115.865055 136.095227,115.609305 136.347386,115.496055 L136.563847,115.415805 L136.677774,115.403805 L138.654027,115.403805 C138.957832,116.870055 140.129001,118.103805 141.614609,118.403805 L146.171687,118.403805 C146.66613,118.304805 147.128673,118.034805 147.535013,117.760305 C147.732486,117.626805 147.91401,117.473805 148.081862,117.305055 L148.083381,117.306555 C148.08566,117.303555 148.087179,117.300555 148.090217,117.298305 C148.092495,117.296055 148.095533,117.293805 148.097812,117.291555 L148.097052,117.290055 C148.619597,116.783805 148.984164,116.129055 149.133788,115.403805 L151.108522,115.403805 L151.221689,115.415805 L151.268779,115.433055 L151.435112,115.494555 C151.68879,115.607055 151.87563,115.864305 151.874111,116.155305 L151.854363,116.325555 L151.855882,116.320305 L151.855882,116.320305 Z M150.376351,122.903805 L137.409944,122.903805 L137.075759,121.403805 L150.710537,121.403805 L150.376351,122.903805 L150.376351,122.903805 Z M149.493037,126.817305 C149.415567,127.160055 149.107205,127.403805 148.751753,127.403805 L139.033783,127.403805 C138.678331,127.403805 138.369969,127.160055 138.292499,126.817305 L137.746409,124.403805 L150.039127,124.403805 L149.493037,126.817305 L149.493037,126.817305 Z M137.054492,108.653805 C137.055252,108.239805 137.397792,107.904555 137.817043,107.903805 C138.235535,107.904555 138.575797,108.239805 138.576557,108.653805 L138.576557,113.903805 L137.054492,113.903805 L137.054492,108.653805 L137.054492,108.653805 Z M140.092545,110.153055 C140.094064,109.739055 140.435844,109.404555 140.855096,109.403805 C141.273587,109.404555 141.613849,109.739805 141.614609,110.153805 L141.614609,116.762805 C140.736612,116.449305 140.094823,115.622805 140.092545,114.655305 L140.092545,110.153055 L140.092545,110.153055 Z M143.130597,107.153805 C143.131356,106.739805 143.473897,106.404555 143.893148,106.403805 C144.311639,106.404555 144.651901,106.739805 144.652661,107.153805 L144.652661,116.903805 L143.130597,116.903805 L143.130597,107.153805 L143.130597,107.153805 Z M146.168649,110.153805 C146.169408,109.739805 146.511949,109.404555 146.9312,109.403805 C147.349692,109.404555 147.689953,109.739805 147.690713,110.153805 L147.690713,114.653805 C147.689953,115.277805 147.441593,115.828305 147.02386,116.231055 L147.00943,116.246055 C146.7755,116.482305 146.486125,116.654805 146.168649,116.766555 L146.168649,110.153805 L146.168649,110.153805 Z M149.206701,108.653805 C149.20746,108.239805 149.550001,107.904555 149.969252,107.903805 C150.387744,107.904555 150.728006,108.239805 150.728765,108.653805 L150.728765,113.903805 L149.206701,113.903805 L149.206701,108.653805 L149.206701,108.653805 Z M152.244753,114.230805 L152.244753,108.653805 C152.243994,107.411055 151.227765,106.403805 149.969252,106.403805 C148.916567,106.403805 148.040848,107.111055 147.778816,108.068805 C147.516025,107.964555 147.231208,107.903805 146.9312,107.903805 C146.663092,107.903805 146.410174,107.957805 146.171687,108.041805 L146.171687,107.153805 C146.170927,105.911055 145.151661,104.903805 143.893148,104.903805 C142.633875,104.903805 141.614609,105.911055 141.614609,107.153805 L141.614609,108.041805 C141.376122,107.957805 141.122444,107.903805 140.855096,107.903805 C140.555088,107.903805 140.269511,107.964555 140.007479,108.068805 C139.745447,107.111055 138.868969,106.403805 137.817043,106.403805 C136.557771,106.403805 135.538504,107.411055 135.538504,108.653805 L135.538504,114.230055 C134.846588,114.620805 134.393918,115.341555 134.392399,116.155305 C134.392399,116.319555 134.410628,116.483805 134.447084,116.646555 L135.394956,120.842805 L136.057252,123.815055 L136.809929,127.144305 C137.0431,128.172555 137.966668,128.903805 139.033783,128.903805 L148.751753,128.903805 C149.818868,128.903805 150.743196,128.172555 150.975607,127.144305 L151.728284,123.817305 L152.392099,120.835305 L153.338452,116.646555 L153.339211,116.642055 C153.374149,116.481555 153.393137,116.318055 153.392377,116.155305 C153.390858,115.341555 152.93515,114.620805 152.244753,114.230805 L152.244753,114.230805 Z" id="Fill-67-Copy"></path>
                            <path d="M201.181436,109.581551 L203.120921,111.521036 L199.681448,114.960509 L197.741963,113.021024 L201.181436,109.581551 L201.181436,109.581551 Z M201.181436,109.581551 L201.181436,109.581551 L200.65119,109.051305 L201.181436,109.581551 L201.181436,109.581551 Z M208.681377,117.081492 L210.620862,119.020977 L207.181389,122.46045 L205.241904,120.520965 L208.681377,117.081492 L208.681377,117.081492 Z M208.681377,117.081492 L208.681377,117.081492 L208.151131,116.551246 L208.681377,117.081492 L208.681377,117.081492 Z M194.961735,111.301287 L196.681472,109.581551 L197.870962,110.771042 L196.681472,111.960532 C196.389724,112.25153 196.241225,112.640027 196.241975,113.021024 C196.241225,113.402021 196.389724,113.790518 196.681472,114.081516 L198.620956,116.021 C198.911954,116.312748 199.300451,116.461247 199.681448,116.460497 C200.062445,116.461247 200.450942,116.311998 200.74194,116.021 L201.93143,114.83151 L203.120921,116.021 L201.401184,117.740737 C201.107937,118.033235 201.107937,118.508731 201.401184,118.801228 C201.693682,119.094476 202.169178,119.094476 202.461676,118.801228 L204.181413,117.081492 L205.370903,118.270983 L204.181413,119.460473 C203.889665,119.751471 203.741166,120.139968 203.741916,120.520965 C203.741166,120.901962 203.889665,121.290459 204.181413,121.581457 L206.120897,123.520941 C206.411895,123.812689 206.800392,123.961188 207.181389,123.960438 C207.562386,123.961188 207.950883,123.811939 208.241881,123.520941 L209.431371,122.331451 L210.803111,123.70319 C210.389114,124.327935 210.180615,125.051679 210.181365,125.770924 C210.180615,126.727916 210.548863,127.692409 211.279357,128.422903 C212.009851,129.153397 212.974343,129.521644 213.931336,129.520894 C214.888328,129.521644 215.852821,129.153397 216.582565,128.422903 C217.313809,127.692409 217.682056,126.727916 217.681306,125.770924 C217.682056,124.813931 217.313809,123.849439 216.582565,123.118945 C216.290067,122.826447 215.815321,122.826447 215.522073,123.118945 C215.229576,123.412192 215.229576,123.886938 215.522073,124.180186 C215.96307,124.621183 216.180568,125.192678 216.181318,125.770924 C216.180568,126.349169 215.96307,126.920665 215.522073,127.361661 C215.081077,127.802658 214.509581,128.020156 213.931336,128.020906 C213.35309,128.020156 212.781595,127.802658 212.340598,127.361661 C211.899602,126.920665 211.682104,126.349169 211.681354,125.770924 C211.682104,125.192678 211.899602,124.621183 212.340598,124.180186 C212.480097,124.039937 212.560347,123.847189 212.560347,123.64994 C212.560347,123.451942 212.480097,123.259193 212.340598,123.118945 L210.491863,121.270959 L211.681354,120.081468 C211.973101,119.790471 212.1216,119.401974 212.12085,119.020977 C212.1216,118.63998 211.973101,118.251483 211.681354,117.960485 L209.741869,116.021 C209.450871,115.729253 209.062374,115.580754 208.681377,115.581504 C208.30038,115.580754 207.911883,115.729253 207.620886,116.021 L206.431395,117.210491 L205.241904,116.021 L206.961641,114.301264 C207.254888,114.008766 207.254888,113.53327 206.961641,113.240772 C206.669143,112.947524 206.193647,112.947524 205.901149,113.240772 L204.181413,114.960509 L202.991922,113.771018 L204.181413,112.581527 C204.47316,112.29053 204.621659,111.902033 204.620909,111.521036 C204.621659,111.140039 204.47316,110.751542 204.181413,110.460544 L202.241928,108.521059 C201.95093,108.229312 201.562433,108.080813 201.181436,108.081563 C200.800439,108.080813 200.411942,108.229312 200.120944,108.521059 L198.931454,109.71055 L197.741963,108.521059 L199.4617,106.801323 C199.754947,106.508825 199.754947,106.033329 199.4617,105.740831 C199.169202,105.447583 198.693706,105.447583 198.401208,105.740831 L196.681472,107.460568 L194.994735,105.773831 C194.702237,105.480583 194.227491,105.480583 193.934243,105.773831 C193.641745,106.066329 193.641745,106.541825 193.934243,106.834323 L195.62098,108.521059 L193.901243,110.240796 C193.607996,110.533293 193.607996,111.00879 193.901243,111.301287 C194.193741,111.594535 194.669237,111.594535 194.961735,111.301287 L194.961735,111.301287 Z" id="Fill-68-Copy"></path>
                            <path d="M279.725975,120.268563 C279.725975,121.068563 279.050975,121.721654 278.225975,121.723109 C277.400975,121.721654 276.727475,121.068563 276.725975,120.268563 C276.725975,119.867109 276.389975,119.54129 275.975975,119.54129 C275.561975,119.54129 275.225975,119.867109 275.225975,120.268563 C275.224475,121.068563 274.550975,121.721654 273.725975,121.723109 C272.900975,121.721654 272.227475,121.068563 272.225975,120.268563 C272.225975,119.867109 271.889975,119.54129 271.475975,119.54129 C271.061975,119.54129 270.725975,119.867109 270.725975,120.268563 C270.724475,121.068563 270.050975,121.721654 269.225975,121.723109 C268.400975,121.721654 267.727475,121.068563 267.725975,120.268563 C267.725975,119.867109 267.389975,119.54129 266.975975,119.54129 C266.561975,119.54129 266.225975,119.867109 266.225975,120.268563 C266.224475,121.068563 265.550975,121.721654 264.725975,121.723109 C263.900975,121.721654 263.227475,121.068563 263.225975,120.268563 C263.225975,119.867109 262.889975,119.54129 262.475975,119.54129 C262.061975,119.54129 261.725975,119.867109 261.725975,120.268563 C261.724475,121.068563 261.050975,121.721654 260.225975,121.723109 C259.400975,121.721654 258.725975,121.068563 258.725975,120.268563 L258.725975,118.086745 C258.725975,117.68529 259.061975,117.359472 259.475975,117.359472 L278.975975,117.359472 C279.389975,117.359472 279.725975,117.68529 279.725975,118.086745 L279.725975,120.268563 L279.725975,120.268563 Z M279.725975,124.632199 L258.725975,124.632199 L258.725975,122.77329 C258.725975,123.023472 259.676975,123.176927 260.225975,123.177654 C261.127475,123.176927 261.926225,122.783472 262.475975,122.172563 C263.025725,122.783472 263.824475,123.176927 264.725975,123.177654 C265.627475,123.176927 266.426225,122.783472 266.975975,122.172563 C267.525725,122.783472 268.324475,123.176927 269.225975,123.177654 C270.127475,123.176927 270.926225,122.783472 271.475975,122.172563 C272.025725,122.783472 272.824475,123.176927 273.725975,123.177654 C274.627475,123.176927 275.426225,122.783472 275.975975,122.172563 C276.525725,122.783472 277.324475,123.176927 278.225975,123.177654 C278.774975,123.176927 278.975975,123.023472 279.725975,122.77329 L279.725975,124.632199 L279.725975,124.632199 Z M279.725975,126.814018 C279.725975,127.215472 279.389975,127.540563 278.975975,127.54129 L259.475975,127.54129 C259.061975,127.540563 258.725975,127.215472 258.725975,126.814018 L258.725975,126.086745 L279.725975,126.086745 L279.725975,126.814018 L279.725975,126.814018 Z M267.725975,115.177654 C267.725975,114.776199 268.061975,114.450381 268.475975,114.450381 L269.975975,114.450381 C270.389975,114.450381 270.725975,114.776199 270.725975,115.177654 L270.725975,115.904927 L267.725975,115.904927 L267.725975,115.177654 L267.725975,115.177654 Z M281.225975,118.086745 C281.225975,116.881654 280.218725,115.905654 278.975975,115.904927 L272.225975,115.904927 L272.225975,115.177654 C272.225975,113.972563 271.218725,112.996563 269.975975,112.995836 L268.475975,112.995836 C267.233225,112.996563 266.225975,113.972563 266.225975,115.177654 L266.225975,115.904927 L259.475975,115.904927 C258.233225,115.905654 257.225975,116.881654 257.225975,118.086745 L257.225975,126.814018 C257.225975,128.019109 258.233225,128.995836 259.475975,128.995836 L278.975975,128.995836 C280.218725,128.995836 281.225975,128.019109 281.225975,126.814018 L281.225975,118.086745 L281.225975,118.086745 Z" id="Fill-69-Copy"></path>
                            <path d="M269.520434,109.647397 C269.667434,109.925997 269.729684,110.169597 269.723684,110.239597 C269.722184,111.009597 269.048684,111.638197 268.223684,111.639597 C267.398684,111.638197 266.725184,111.009597 266.723684,110.239597 C266.714684,110.158397 266.803184,109.855297 266.992184,109.524897 C267.268934,109.020197 267.722684,108.425197 268.102934,107.972297 C268.145684,107.921197 268.183184,107.878497 268.224434,107.830897 C268.444184,108.088497 268.699184,108.400697 268.938434,108.728997 C269.166434,109.041197 269.377184,109.365997 269.520434,109.647397 L269.520434,109.647397 Z M268.223684,106.039597 C268.009184,106.039597 267.808184,106.123597 267.664934,106.271997 C267.654434,106.283897 267.079184,106.881697 266.489684,107.646797 C266.194934,108.030397 265.895684,108.453897 265.658684,108.883697 C265.425434,109.317697 265.232684,109.741897 265.223684,110.239597 C265.225184,111.785197 266.567684,113.038197 268.223684,113.039597 C269.879684,113.038197 271.222184,111.785197 271.223684,110.239597 C271.214684,109.741897 271.021934,109.317697 270.788684,108.883697 C270.079934,107.610397 268.799684,106.296497 268.781684,106.271997 C268.639184,106.123597 268.438184,106.039597 268.223684,106.039597 L268.223684,106.039597 Z" id="Fill-70-Copy"></path>
                            <path d="M339.623283,112.14533 L337.785221,113.975315 C337.636904,113.72971 337.478751,113.490885 337.297139,113.267128 C337.157903,113.096109 337.009587,112.931116 336.851433,112.773658 C336.486696,112.410523 336.08034,112.104647 335.645228,111.844727 L337.483291,110.014743 C337.711062,109.787972 337.76933,109.439906 337.62858,109.152111 C337.530964,108.953216 337.481021,108.732472 337.481021,108.509469 C337.481778,108.12298 337.62858,107.737997 337.922186,107.447189 L337.386431,106.913788 L337.922186,107.446435 C338.221089,107.1496 338.60323,107.004949 338.991426,107.004195 C339.380378,107.004949 339.763276,107.1496 340.062178,107.446435 C340.34065,107.724436 340.478372,108.071749 340.493506,108.425089 C340.509398,108.818359 340.824948,109.131769 341.219954,109.14759 C341.574853,109.162658 341.922943,109.300529 342.202171,109.577776 C342.501074,109.875365 342.646363,110.256581 342.64712,110.643823 C342.646363,111.030313 342.501074,111.410775 342.202171,111.708364 C341.909322,111.999926 341.523397,112.146837 341.135201,112.146837 C340.910457,112.146837 340.689496,112.097867 340.489723,112.000679 C340.199901,111.860549 339.851055,111.91856 339.623283,112.14533 L339.623283,112.14533 Z M334.288437,125.704847 C334.255141,125.518006 334.212765,125.327399 334.162065,125.133024 C334.121959,124.979332 334.071259,124.821874 334.019803,124.663662 C333.856352,124.162657 333.651282,123.647338 333.378864,123.113938 C333.16093,122.689779 332.895323,122.255827 332.607014,121.820367 C332.241521,121.266625 331.831381,120.708363 331.350866,120.153115 C331.064828,119.822376 330.758358,119.492391 330.4307,119.166927 C329.120825,117.862808 327.756466,116.887921 326.465509,116.231719 C325.548369,115.766877 324.674363,115.467028 323.86392,115.326144 C326.478373,113.367329 329.322868,112.32539 331.678524,112.332171 C332.565395,112.332171 333.379621,112.473808 334.093204,112.751056 C334.580529,112.941664 335.015641,113.189529 335.406106,113.502939 C335.536261,113.607661 335.661119,113.719916 335.781437,113.839705 C336.261952,114.318861 336.619878,114.874109 336.874891,115.520518 C337.152606,116.230212 337.294869,117.041613 337.294869,117.924586 C337.301679,120.26989 336.255898,123.101884 334.288437,125.704847 L334.288437,125.704847 Z M332.84992,126.992391 C332.805274,127.345731 332.691766,127.574762 332.570692,127.690784 C332.421619,127.844475 332.093961,127.990633 331.541558,127.990633 C330.824192,127.993647 329.795815,127.731467 328.663012,127.152863 C327.527938,126.57652 326.283897,125.692793 325.079962,124.494149 C323.876027,123.295505 322.9884,122.056178 322.409512,120.926846 C321.828354,119.799021 321.565017,118.775164 321.568044,118.060197 C321.568044,117.510975 321.714847,117.184757 321.869217,117.035586 C321.936565,116.966274 322.045532,116.900729 322.189308,116.847238 C322.364866,116.781693 322.594907,116.735737 322.898351,116.735737 C323.616474,116.732723 324.644851,116.994903 325.777654,117.573507 C326.911971,118.14985 328.156769,119.033577 329.360704,120.232221 C330.564638,121.430864 331.452266,122.670191 332.031154,123.799523 C332.271789,124.266625 332.445834,124.708865 332.580529,125.12549 C332.623662,125.257333 332.666038,125.38767 332.698577,125.511979 C332.812084,125.945179 332.874135,126.340708 332.872622,126.66542 C332.872622,126.786715 332.862784,126.89219 332.84992,126.992391 L332.84992,126.992391 Z M341.135201,113.653617 C341.906295,113.654371 342.684199,113.359042 343.272924,112.774411 C343.861649,112.18752 344.161308,111.413035 344.160551,110.643823 C344.161308,109.875365 343.863162,109.099373 343.272924,108.512483 C342.880188,108.12072 342.403457,107.869087 341.906295,107.741764 C341.777653,107.246787 341.52491,106.772151 341.132175,106.381142 C340.542693,105.793497 339.763276,105.496661 338.991426,105.497415 C338.218819,105.496661 337.440158,105.794251 336.851433,106.381142 C336.263465,106.966526 335.967589,107.741764 335.967589,108.509469 C335.967589,108.769389 336.012235,109.027048 336.08034,109.280187 L334.162822,111.189278 C333.380378,110.94744 332.546477,110.86306 331.678524,110.86306 C328.168876,110.871347 324.12877,113.031317 320.799221,116.044878 L320.922566,116.044878 C320.252872,116.581292 320.160553,117.300026 320.160553,118.060197 C320.16358,119.11645 320.457185,120.324888 321.114771,121.611678 C321.773871,122.896962 322.700091,124.255324 324.009966,125.559443 C325.319841,126.862808 326.6842,127.838448 327.9744,128.494651 C329.267627,129.149347 330.4814,129.4944 331.541558,129.497413 C332.339894,129.49666 333.095853,129.293245 333.641445,128.756077 C336.961914,125.441161 338.799976,121.418057 338.8083,117.924586 C338.8083,117.059694 338.685712,116.229458 338.443563,115.451206 L340.361081,113.542116 C340.615338,113.609921 340.874135,113.653617 341.135201,113.653617 L341.135201,113.653617 Z" id="Fill-71-Copy"></path>
                            <path d="M329.143798,124.443326 C329.143798,124.442606 329.129386,124.469989 328.984541,124.472872 C328.815915,124.475754 328.510371,124.402251 328.171678,124.223536 C327.831545,124.046984 327.4561,123.774589 327.105878,123.424366 C326.755655,123.074144 326.482539,122.697979 326.305987,122.357845 C326.127273,122.019152 326.053769,121.714329 326.056652,121.545704 C326.059534,121.400858 326.088359,121.387887 326.086918,121.386446 L325.577438,120.876245 L326.086918,121.385725 C326.087638,121.386446 326.102051,121.358342 326.246896,121.355459 C326.415522,121.352577 326.720345,121.42608 327.059037,121.604795 C327.399171,121.781347 327.775336,122.054463 328.125559,122.404685 C328.475781,122.754908 328.748897,123.131073 328.924729,123.470486 C329.103443,123.809179 329.176947,124.114722 329.174064,124.283348 C329.171182,124.428193 329.142357,124.441885 329.143798,124.443326 L329.143798,124.443326 Z M329.144519,121.385725 C328.695571,120.937498 328.212033,120.58079 327.724893,120.32641 C327.236311,120.074913 326.746287,119.917097 326.246896,119.914214 C325.843347,119.911332 325.397282,120.036 325.067958,120.366765 L325.067958,120.366045 L325.067958,120.366765 C324.737192,120.69609 324.612524,121.142155 324.615407,121.545704 C324.618289,122.045095 324.776105,122.535118 325.027603,123.0237 C325.281982,123.510841 325.638691,123.994379 326.086918,124.443326 C326.535145,124.890833 327.019403,125.248262 327.506544,125.501921 C327.995126,125.754138 328.484429,125.911234 328.984541,125.914117 C329.388089,125.916999 329.834154,125.793052 330.163479,125.462286 C330.493524,125.132962 330.618192,124.686897 330.615309,124.283348 C330.612427,123.783957 330.455331,123.293934 330.203113,122.805352 C329.949454,122.318211 329.592025,121.833953 329.144519,121.385725 L329.144519,121.385725 Z" id="Fill-72-Copy"></path>
                            <path d="M22.4460579,165.974086 C22.013308,166.470586 21.339058,166.970836 20.4765581,167.411086 C20.2253081,167.539336 20.0685581,167.795836 20.0685581,168.078586 L20.0685581,180.303586 C20.0685581,180.710836 19.7258082,181.052836 19.3185582,181.053586 L5.81855941,181.053586 C5.41130945,181.052836 5.06855948,180.710836 5.06855948,180.303586 L5.06855948,168.078586 C5.06855948,167.795836 4.91180949,167.539336 4.66055951,167.411086 C3.79805959,166.970836 3.12380965,166.470586 2.69180969,165.974086 C2.25680973,165.473086 2.06930975,165.008086 2.06855975,164.553586 C2.06930975,164.075086 2.27930973,163.573336 2.76905969,163.039336 C3.49655962,162.244336 4.8375595,161.469586 6.55355934,160.928086 C8.26880919,160.382086 10.353059,160.052836 12.5685588,160.053586 C15.5220585,160.051336 18.2445583,160.640836 20.1660581,161.539336 C21.126058,161.986336 21.882058,162.511336 22.3680579,163.039336 C22.8578079,163.573336 23.0678079,164.075086 23.0685579,164.553586 C23.0678079,165.008086 22.8803079,165.473086 22.4460579,165.974086 L22.4460579,165.974086 Z M19.0380582,159.498586 C17.1563084,158.900086 14.9318086,158.554336 12.5685588,158.553586 C9.41705909,158.555836 6.51455935,159.166336 4.33730954,160.180336 C3.24830964,160.689586 2.33630972,161.299336 1.66655978,162.022336 C1.00055984,162.740086 0.567809883,163.607086 0.568559883,164.553586 C0.567809883,165.449086 0.957809848,166.274086 1.56155979,166.961086 C2.08130975,167.553586 2.81855968,168.065836 3.56855961,168.518086 L3.56855961,180.303586 C3.56855961,181.546336 4.57580952,182.553586 5.81855941,182.553586 L19.3185582,182.553586 C20.5613081,182.553586 21.568558,181.546336 21.568558,180.303586 L21.568558,168.518086 C22.3185579,168.065836 23.0558079,167.553586 23.5755578,166.961086 C24.1793078,166.274086 24.5693077,165.449086 24.5685577,164.553586 C24.5693077,163.607086 24.1365578,162.740086 23.4705578,162.022336 C22.4648079,160.940086 20.9198081,160.100836 19.0380582,159.498586 L19.0380582,159.498586 Z" id="Fill-74-Copy"></path>
                            <path d="M15.9812269,162.743255 L8.48153939,170.242942 C8.18830161,170.53543 8.18830161,171.01091 8.48153939,171.303398 C8.7740272,171.596636 9.24950739,171.596636 9.5419952,171.303398 L17.0416827,163.803711 C17.3349205,163.511223 17.3349205,163.035743 17.0416827,162.743255 C16.7491949,162.450017 16.2737147,162.450017 15.9812269,162.743255" id="Fill-75-Copy"></path>
                            <path d="M15.5079667,168.807579 L8.00827915,176.307266 C7.71504137,176.599754 7.71504137,177.075234 8.00827915,177.367722 C8.30076696,177.66096 8.77624715,177.66096 9.06873496,177.367722 L16.5684225,169.868035 C16.8616603,169.575547 16.8616603,169.100067 16.5684225,168.807579 C16.2759347,168.514341 15.8004545,168.514341 15.5079667,168.807579" id="Fill-76-Copy"></path>
                            <path d="M81.8182429,171.369436 L86.3459929,166.841686 C87.3884929,168.092686 88.0649929,169.653436 88.2194929,171.369436 L81.8182429,171.369436 L81.8182429,171.369436 Z M86.3459929,177.397186 L81.8182429,172.869436 L88.2194929,172.869436 C88.0649929,174.585436 87.3884929,176.146186 86.3459929,177.397186 L86.3459929,177.397186 Z M80.5597429,180.331936 L80.5597429,173.929936 L85.0874929,178.457686 C83.8364929,179.500936 82.0597429,180.176686 80.5597429,180.331936 L80.5597429,180.331936 Z M80.0069929,172.869436 C79.5929929,172.869436 79.2569929,172.533436 79.2569929,172.119436 C79.2569929,171.705436 79.5929929,171.369436 80.0069929,171.369436 C80.4217429,171.369436 80.7569929,171.705436 80.7569929,172.119436 C80.7569929,172.533436 80.4217429,172.869436 80.0069929,172.869436 L80.0069929,172.869436 Z M79.0597429,180.331936 C76.8097429,180.176686 75.7829929,179.500936 74.5319929,178.457686 L79.0597429,173.929936 L79.0597429,180.331936 L79.0597429,180.331936 Z M72.4942429,175.516936 C72.4934929,175.514686 72.4934929,175.511686 72.4919929,175.509436 C72.2632429,175.002436 72.0847429,174.469936 71.9594929,173.917936 C71.9527429,173.884936 71.9459929,173.851936 71.9392429,173.818936 C71.8897429,173.587186 71.8522429,173.352436 71.8229929,173.114686 C71.8169929,173.064436 71.8087429,173.015686 71.8034929,172.964686 C71.8004929,172.933936 71.8012429,172.900936 71.7982429,172.869436 L78.1964929,172.869436 L73.6687429,177.397186 C73.1962429,176.830186 72.8024929,176.197186 72.4942429,175.516936 L72.4942429,175.516936 Z M71.7974929,171.319186 C71.8042429,171.253936 71.8147429,171.190936 71.8222429,171.126436 C71.8447429,170.940436 71.8724929,170.755936 71.9069929,170.574436 C71.9234929,170.487436 71.9414929,170.401186 71.9609929,170.315686 C71.9969929,170.152186 72.0397429,169.990936 72.0854929,169.830436 C72.1087429,169.750936 72.1297429,169.669936 72.1552429,169.590436 C72.2272429,169.366936 72.3067429,169.146436 72.3967429,168.931186 C72.4192429,168.877186 72.4469929,168.825436 72.4709929,168.772186 C72.5444929,168.607186 72.6217429,168.444436 72.7057429,168.285436 C72.7507429,168.198436 72.8002429,168.114436 72.8482429,168.029686 C72.9194929,167.905186 72.9937429,167.782936 73.0717429,167.662936 C73.1257429,167.578186 73.1804929,167.492686 73.2382429,167.410186 C73.3274929,167.281936 73.4227429,167.158186 73.5194929,167.035186 C73.5697429,166.970686 73.6162429,166.903936 73.6687429,166.841686 L78.1964929,171.369436 L71.7952429,171.369436 C71.7967429,171.352936 71.7959929,171.335686 71.7974929,171.319186 L71.7974929,171.319186 Z M79.0597429,163.906936 L79.0597429,170.308936 L74.7292429,165.781186 C75.3629929,165.252436 76.0394929,164.818936 76.7467429,164.499436 C77.1697429,164.323936 77.4637429,164.186686 77.9189929,164.082436 C78.3044929,164.002936 79.0597429,163.940686 79.0597429,163.906936 L79.0597429,163.906936 Z M71.0234929,168.324436 C70.9544929,168.486436 70.9012429,168.656686 70.8412429,168.823186 C70.7932429,168.955936 70.7377429,169.084936 70.6957429,169.219936 C70.6567429,169.345936 70.6312429,169.477186 70.5967429,169.604686 C70.5479929,169.787686 70.4939929,169.967686 70.4557429,170.154436 C70.4272429,170.293186 70.4129929,170.436436 70.3904929,170.577436 C70.3109929,171.080686 70.2569929,171.593686 70.2569929,172.119436 C70.2569929,172.471186 70.2779929,172.816936 70.3139929,173.158936 C70.3199929,173.214436 70.3319929,173.266936 70.3387429,173.322436 C70.3732429,173.597686 70.4129929,173.870686 70.4692429,174.138436 C68.5169929,172.630936 67.2562429,170.275936 67.2569929,167.619436 C67.2577429,165.338686 68.1794929,163.281436 69.6734929,161.785936 C71.1689929,160.291936 73.2269929,159.369436 75.5069929,159.369436 C78.1634929,159.368686 80.5184929,160.629436 82.0267429,162.581686 C81.7589929,162.525436 81.4859929,162.484936 81.2107429,162.451186 C81.1552429,162.444436 81.1019929,162.432436 81.0472429,162.426436 C80.7052429,162.390436 80.3587429,162.369436 80.0069929,162.369436 C79.4812429,162.369436 78.9682429,162.422686 78.4649929,162.502936 C78.3247429,162.525436 78.1807429,162.538936 78.0419929,162.567436 C77.8559929,162.605686 77.6752429,162.660436 77.4929929,162.709186 C77.3647429,162.742936 77.2334929,162.768436 77.1082429,162.808186 C75.5819929,163.282936 74.2162429,164.122186 73.1137429,165.224686 C73.1137429,165.224686 73.1129929,165.224686 73.1129929,165.225436 C73.1129929,165.225436 73.1129929,165.225436 73.1122429,165.225436 C72.2309929,166.107436 71.5169929,167.158186 71.0234929,168.324436 L71.0234929,168.324436 Z M83.5087429,164.664436 C84.1709929,164.963686 84.6779929,165.336436 85.2112429,165.781186 L80.5597429,170.308936 L80.5597429,163.927186 C81.3097429,164.100436 83.5004929,164.663686 83.5087429,164.664436 L83.5087429,164.664436 Z M86.9017429,165.225436 L86.9009929,165.224686 C86.1382429,164.461936 85.2442429,163.834936 84.2632429,163.357936 C82.6829929,160.113436 79.3612429,157.870186 75.5069929,157.869436 C70.1219929,157.870186 65.7577429,162.234436 65.7569929,167.619436 C65.7577429,171.473686 68.0009929,174.794686 71.2454929,176.375686 C71.7232429,177.355936 72.3494929,178.249936 73.1122429,179.012686 L73.1129929,179.013436 C73.1129929,179.014186 73.1137429,179.014186 73.1137429,179.014186 C74.8777429,180.778186 77.3144929,181.869436 80.0069929,181.869436 L80.0077429,181.869436 C82.6994929,181.869436 85.1362429,180.778186 86.9009929,179.014186 C86.9009929,179.014186 86.9009929,179.014186 86.9017429,179.013436 C86.9017429,179.013436 86.9017429,179.013436 86.9017429,179.012686 C88.6657429,177.248686 89.7569929,174.811936 89.7569929,172.119436 C89.7569929,169.426936 88.6657429,166.990186 86.9017429,165.225436 L86.9017429,165.225436 Z" id="Fill-77-Copy"></path>
                            <path d="M152.587235,177.277737 C150.816242,178.682416 148.303118,179.445216 145.479495,179.444456 C142.655873,179.445216 140.142749,178.682416 138.371756,177.277737 C136.603062,175.866974 135.5213,173.847796 135.512867,171.078745 C135.5213,168.309695 136.603062,166.290517 138.371756,164.879754 C139.806184,163.742778 141.731276,163.033974 143.908601,162.803537 L143.056838,163.96637 C142.807672,164.306323 142.883572,164.782408 143.226271,165.028816 C143.568969,165.275984 144.048134,165.200693 144.2973,164.860741 L145.479495,163.246159 L146.661691,164.860741 C146.910857,165.200693 147.390021,165.275984 147.73272,165.028816 C148.075419,164.782408 148.151319,164.306323 147.902153,163.96637 L147.050389,162.803537 C149.227714,163.033974 151.152807,163.742778 152.587235,164.879754 C154.355928,166.290517 155.436924,168.309695 155.446124,171.078745 C155.436924,173.847796 154.355928,175.866974 152.587235,177.277737 L152.587235,177.277737 Z M153.543265,163.691063 C152.242236,162.662841 150.660609,161.957079 148.916449,161.563891 C149.126515,161.368437 149.220048,161.067272 149.124981,160.777514 C148.993882,160.378241 148.561484,160.159212 148.158985,160.28926 L146.430158,160.846721 C146.615691,160.24439 146.930023,159.699098 147.368555,159.26332 C147.66832,158.966718 147.66832,158.485309 147.368555,158.187946 C147.069556,157.891344 146.584258,157.891344 146.284492,158.187946 C145.543895,158.921847 145.020264,159.875538 144.813265,160.937983 L142.800006,160.28926 C142.397507,160.159212 141.964342,160.378241 141.834009,160.777514 C141.738943,161.067272 141.832476,161.368437 142.042542,161.563891 C140.298382,161.957079 138.716754,162.662841 137.415726,163.691063 C135.296667,165.356599 133.970339,167.900536 133.979539,171.078745 C133.970339,174.256955 135.296667,176.800891 137.415726,178.466428 C139.530951,180.138049 142.384474,180.964734 145.479495,180.965494 C148.574517,180.964734 151.428039,180.138049 153.543265,178.466428 C155.662323,176.800891 156.987885,174.256955 156.979452,171.078745 C156.987885,167.900536 155.662323,165.356599 153.543265,163.691063 L153.543265,163.691063 Z" id="Fill-113-Copy"></path>
                        </g>
                    </g>
                </g>
            </g>
        </g>
    </g>
</svg>