<?xml version="1.0" encoding="UTF-8"?>
<svg width="20px" height="20px" viewBox="0 0 20 20" version="1.1" xmlns="http://www.w3.org/2000/svg" xmlns:xlink="http://www.w3.org/1999/xlink">
    <!-- Generator: Sketch 52.2 (67145) - http://www.bohemiancoding.com/sketch -->
    <title>share</title>
    <desc>Created with Sketch.</desc>
    <g id="Page-1" stroke="none" stroke-width="1" fill="none" fill-rule="evenodd">
        <g id="菜单列表" transform="translate(-242.000000, -627.000000)" fill="#FFFFFF">
            <g id="Group-8" transform="translate(0.000000, 607.000000)">
                <g id="Group-3" transform="translate(70.000000, 10.000000)">
                    <g id="Group-10" transform="translate(150.000000, 0.000000)">
                        <g id="Group-5" transform="translate(22.000000, 9.000000)">
                            <g id="Icon-93" transform="translate(0.000000, 1.000000)">
                                <path d="M16.9230769,5.51734126 C18.0681538,5.51734126 19,6.44561072 19,7.58629251 L19,17.9310488 C19,19.0717305 18.0681538,20 16.9230769,20 L3.07692308,20 C1.93184615,20 1,19.0717305 1,17.9310488 L1,7.58629251 C1,6.44561072 1.93184615,5.51734126 3.07692308,5.51734126 L7.23076923,5.51734126 L7.23076923,6.89664209 L3.07692308,6.89664209 C2.69476923,6.89664209 2.38461538,7.20560548 2.38461538,7.58629251 L2.38461538,17.9310488 C2.38461538,18.3117358 2.69476923,18.6206992 3.07692308,18.6206992 L16.9230769,18.6206992 C17.3052308,18.6206992 17.6153846,18.3117358 17.6153846,17.9310488 L17.6153846,7.58629251 C17.6153846,7.20560548 17.3052308,6.89664209 16.9230769,6.89664209 L12.7692308,6.89664209 L12.7692308,5.51734126 L16.9230769,5.51734126 Z M9.37692308,2.45101758 L8.056,3.74342246 L7.23076923,2.71032614 L10,0 L12.7692308,2.71032614 L11.944,3.74342246 L10.6230769,2.45101758 L10.6230769,12.4137075 L9.37692308,12.4137075 L9.37692308,2.45101758 Z" id="Icon-92"></path>
                            </g>
                        </g>
                    </g>
                </g>
            </g>
        </g>
    </g>
</svg>