<?xml version="1.0" encoding="UTF-8"?>
<svg width="100px" height="20px" viewBox="0 0 100 20" version="1.1" xmlns="http://www.w3.org/2000/svg" xmlns:xlink="http://www.w3.org/1999/xlink">
    <!-- Generator: Sketch 52.2 (67145) - http://www.bohemiancoding.com/sketch -->
    <title>Rectangle 2 Copy</title>
    <desc>Created with Sketch.</desc>
    <g id="Page-1" stroke="none" stroke-width="1" fill="none" fill-rule="evenodd">
        <g id="餐厅详情" transform="translate(-160.000000, -105.000000)" fill="#FFFFFF" fill-rule="nonzero">
            <g id="Group" transform="translate(0.000000, 64.000000)">
                <g id="Group-3" transform="translate(160.000000, 41.000000)">
                    <g id="Group-2">
                        <path d="M0,0 L100,0 L100,20 L0,20 L0,0 Z M8,14 L12.702282,16.472136 L11.8042261,11.236068 L15.6084521,7.52786405 L10.351141,6.76393202 L8,2 L5.64885899,6.76393202 L0.39154787,7.52786405 L4.19577393,11.236068 L3.29771798,16.472136 L8,14 Z M29,14 L33.702282,16.472136 L32.8042261,11.236068 L36.6084521,7.52786405 L31.351141,6.76393202 L29,2 L26.648859,6.76393202 L21.3915479,7.52786405 L25.1957739,11.236068 L24.297718,16.472136 L29,14 Z M50,14 L54.702282,16.472136 L53.8042261,11.236068 L57.6084521,7.52786405 L52.351141,6.76393202 L50,2 L47.648859,6.76393202 L42.3915479,7.52786405 L46.1957739,11.236068 L45.297718,16.472136 L50,14 Z M71,14 L75.702282,16.472136 L74.8042261,11.236068 L78.6084521,7.52786405 L73.351141,6.76393202 L71,2 L68.648859,6.76393202 L63.3915479,7.52786405 L67.1957739,11.236068 L66.297718,16.472136 L71,14 Z M92,14 L96.702282,16.472136 L95.8042261,11.236068 L99.6084521,7.52786405 L94.351141,6.76393202 L92,2 L89.648859,6.76393202 L84.3915479,7.52786405 L88.1957739,11.236068 L87.297718,16.472136 L92,14 Z" id="Rectangle-2-Copy"></path>
                    </g>
                </g>
            </g>
        </g>
    </g>
</svg>